<svg id="katman_1" data-name="katman 1" xmlns="http://www.w3.org/2000/svg" viewBox="0 0 1080 275.96"><defs><style>.cls-1{fill:#5f5ea8;}.cls-2{fill:#575aa6;}.cls-3{fill:#3b3c7e;}.cls-4{fill:#fff;}.cls-5{fill:#363636;}</style></defs><title>Çalışma Yüzeyi 1 kopya</title><path class="cls-1" d="M204.79,178.79a8.1,8.1,0,1,1-8-8A8.08,8.08,0,0,1,204.79,178.79Z"/><path class="cls-2" d="M390.5,61.45h0a32.91,32.91,0,0,0-19.93-16.51L242.84,6.75a161.14,161.14,0,0,0-92.3,0L22.81,44.93A32.9,32.9,0,0,0,2.88,61.45,32.22,32.22,0,0,0-.64,77.85l7.73,149a22.57,22.57,0,0,0,10,17.64c.5.34,1,.68,1.58,1,.92.58,1.91,1.18,3,1.79l.74.43,1.54.86h0c1.06.57,2.18,1.16,3.37,1.76h0l1.83.9a162.76,162.76,0,0,0,18.47,7.41l1,.32,1,.32c22.84,7.43,57.36,14.36,108.86,16.69h0a28.13,28.13,0,0,0,16.41-5.44A19.19,19.19,0,0,0,182.54,258v0c.13-1.06.25-2.12.37-3.18q1.68-14.89,3.34-29.79,1.35-12,2.65-24.07c.08-.72.1-1.45.16-2.18a9.62,9.62,0,0,0-3.44-8.46,14.88,14.88,0,0,1-5.09-12,15.13,15.13,0,0,1,1.67-6.63h0a11.35,11.35,0,0,1,.75-1.31,16.67,16.67,0,0,1,2.35-2.94,14,14,0,0,1,1.28-1.15l.73-.55.82-.55h0c.34-.21.69-.41,1-.6s.73-.36,1.09-.52.75-.3,1.14-.43a14.64,14.64,0,0,1,3.56-.74,17.37,17.37,0,0,1,7.13.86,14.08,14.08,0,0,1,1.45.57q.48.21.93.45l.46.25c.44.26.87.53,1.28.82h0a15.35,15.35,0,0,1,2.72,2.43l.33.38a15.5,15.5,0,0,1,3.24,6.88c1.12,5.69-.34,10.73-4.66,14.66a10,10,0,0,0-3.52,8.89c.75,7.25,1.49,14.5,2.29,21.74,1,8.9,2,17.79,3,26.69.37,3.29.73,6.58,1.1,9.88h0l0,0a19.26,19.26,0,0,0,7.77,13.1A28.08,28.08,0,0,0,234.92,276h0c51.53-2.32,86.05-9.25,108.89-16.69l1-.32a161,161,0,0,0,20.07-8l.93-.46c.61-.3,1.21-.61,1.78-.91.29-.14.57-.29.85-.45.57-.29,1.12-.58,1.65-.88,1.19-.66,2.3-1.3,3.32-1.93l.57-.35,1.62-1h0l.35-.23.32-.22a22.6,22.6,0,0,0,10-17.64l7.73-149A32.22,32.22,0,0,0,390.5,61.45ZM146,237.88a4.12,4.12,0,0,1-5.92-.34c-13.46-13.74-21.49-30-23.78-49.07-.19-1.64-.4-3.28-.6-4.92v-9.69c.25-2.06.45-4.12.74-6.17a82.61,82.61,0,0,1,23-47,22.45,22.45,0,0,1,2.84-2.14h1.9c3.7,2,4.12,4.52,1.17,7.59-10.14,10.5-17,22.76-19.85,37-4.8,24.17.79,45.84,16.7,64.84,1.18,1.4,2.49,2.69,3.72,4C147.64,233.91,147.66,236.28,146,237.88Zm14.21-14a4,4,0,0,1-5.68-.32,97.51,97.51,0,0,1-8-9.85,63.09,63.09,0,0,1,7.67-79.35c2.52-2.57,6.18-1.95,7.18,1.22.11.34.16.7.24,1.06l.31.23a21.13,21.13,0,0,1-2.16,3.28,54.07,54.07,0,0,0-14.5,27.28c-3.58,18.46,1,34.85,13.57,49,.55.63,1.18,1.2,1.71,1.84A3.92,3.92,0,0,1,160.18,223.84ZM174,203.24a7.27,7.27,0,0,1,1.71,2.88,3.67,3.67,0,0,1-2.1,4.15,4,4,0,0,1-4.88-1,43.22,43.22,0,0,1-10-15.91,45.43,45.43,0,0,1-2.56-15.57,42.92,42.92,0,0,1,12.23-29.25,6.11,6.11,0,0,1,2.3-1.56,4,4,0,0,1,4.21,6.32c-1.35,1.67-2.85,3.22-4.09,5A35.52,35.52,0,0,0,174,203.24Zm44.83,6.43c-1.78-1.62-1.73-4.06.14-6.1,13.52-14.7,13.53-34.8,0-49.61-1.88-2.06-1.95-4.48-.17-6.09s4.23-1.34,6.14.68a43.37,43.37,0,0,1-.11,60.53C223,211.06,220.62,211.27,218.85,209.67Zm16.08,15.06a3.87,3.87,0,0,1-3-2.93c-.44-1.72.32-3,1.48-4.21a57,57,0,0,0,10.21-14.39A55.41,55.41,0,0,0,234,140.53c-.29-.3-.59-.59-.87-.91-1.71-1.93-1.71-4.28,0-5.86a4,4,0,0,1,5.89.4,103.76,103.76,0,0,1,7.71,9.49c7.23,10.6,10.64,22.41,10.75,36-.28,16.33-6.3,31.16-18.29,43.61A4.25,4.25,0,0,1,234.93,224.73Zm42.77-41.18c-.4,3.13-.72,6.28-1.26,9.4a82.25,82.25,0,0,1-23.11,44.58,4.12,4.12,0,0,1-5.92.35,3.91,3.91,0,0,1,.08-5.86A77.26,77.26,0,0,0,262,211.68a74,74,0,0,0,6.95-42.55c-2.13-16.67-9.28-31-21-43.13-2.83-2.94-2.36-5.56,1.28-7.47h1.89a12.54,12.54,0,0,1,2.2,1.46,82.66,82.66,0,0,1,23.47,46.63c.37,2.4.61,4.83.91,7.24Z"/><path class="cls-2" d="M204.79,178.79a8.1,8.1,0,1,1-8-8A8.08,8.08,0,0,1,204.79,178.79Z"/><path class="cls-3" d="M390.52,61.45s0,0,0,0a35.2,35.2,0,0,0-11.42-5.61l-134-31.36a177.09,177.09,0,0,0-96.8,0l-134,31.36A35.22,35.22,0,0,0,2.89,61.45,32.11,32.11,0,0,0-.62,77.85l7.72,149a22.6,22.6,0,0,0,10,17.64l1.57,1c.92.58,1.91,1.18,3,1.79l.74.43,1.54.86h0c1.06.57,2.18,1.16,3.37,1.76h0l1.83.9a162.76,162.76,0,0,0,18.47,7.41l1,.32,1,.32c22.84,7.43,57.36,14.36,108.86,16.69h0a28.13,28.13,0,0,0,16.41-5.44A19.19,19.19,0,0,0,182.54,258v0c0-.07,0-.13,0-.19,0-.24,0-.36,0-.36l.3-2.63q1.68-14.89,3.34-29.79,1.35-12,2.65-24.07c.08-.72.1-1.45.16-2.18a9.6,9.6,0,0,0-3.44-8.46,14.91,14.91,0,0,1-5.09-12,15.4,15.4,0,0,1,1.66-6.63h0c.24-.45.49-.89.75-1.31a16.67,16.67,0,0,1,2.35-2.94,14,14,0,0,1,1.28-1.15l.73-.55.82-.55h0c.34-.21.69-.41,1-.6s.73-.36,1.09-.52.75-.3,1.14-.43a14.64,14.64,0,0,1,3.56-.74,17.37,17.37,0,0,1,7.13.86,14.08,14.08,0,0,1,1.45.57q.48.21.93.45l.46.25a13.23,13.23,0,0,1,1.28.82h0a15.35,15.35,0,0,1,2.72,2.43l.33.38a15.32,15.32,0,0,1,3.26,6.88c1.11,5.69-.35,10.73-4.66,14.66a9.93,9.93,0,0,0-3.53,8.89q1.13,10.88,2.29,21.74c1,8.9,2,17.79,3,26.69.38,3.3.74,6.59,1.1,9.89l0,0a19.26,19.26,0,0,0,7.77,13.1A28.08,28.08,0,0,0,234.92,276h0c51.53-2.32,86.05-9.25,108.89-16.69l1-.32a161,161,0,0,0,20.07-8l.93-.46c.61-.3,1.21-.61,1.78-.91.29-.14.57-.29.85-.45.57-.29,1.12-.58,1.65-.88,1.19-.66,2.3-1.3,3.32-1.93l.57-.35c.56-.35,1.11-.69,1.62-1h0l.35-.23.33-.22a22.61,22.61,0,0,0,10-17.64l7.72-149A32.32,32.32,0,0,0,390.52,61.45ZM146,237.88a4.12,4.12,0,0,1-5.92-.34c-13.46-13.74-21.49-30-23.78-49.07-.19-1.64-.4-3.28-.6-4.92v-9.69c.25-2.06.45-4.12.74-6.17a82.61,82.61,0,0,1,23-47,22.45,22.45,0,0,1,2.84-2.14h1.9c3.7,2,4.12,4.52,1.17,7.59-10.14,10.5-17,22.76-19.85,37-4.8,24.17.79,45.84,16.7,64.84,1.18,1.4,2.49,2.69,3.72,4C147.64,233.91,147.66,236.28,146,237.88Zm14.21-14a4,4,0,0,1-5.68-.32,97.51,97.51,0,0,1-8-9.85,63.09,63.09,0,0,1,7.67-79.35c2.52-2.57,6.18-1.95,7.18,1.22.11.34.16.7.24,1.06l.31.23a21.13,21.13,0,0,1-2.16,3.28,54.07,54.07,0,0,0-14.5,27.28c-3.58,18.46,1,34.85,13.57,49,.55.63,1.18,1.2,1.71,1.84A3.92,3.92,0,0,1,160.18,223.84ZM174,203.24a7.27,7.27,0,0,1,1.71,2.88,3.67,3.67,0,0,1-2.1,4.15,4,4,0,0,1-4.88-1,43.22,43.22,0,0,1-10-15.91,45.43,45.43,0,0,1-2.56-15.57,42.92,42.92,0,0,1,12.23-29.25,6.11,6.11,0,0,1,2.3-1.56,4,4,0,0,1,4.21,6.32c-1.35,1.67-2.85,3.22-4.09,5A35.52,35.52,0,0,0,174,203.24Zm44.83,6.43c-1.78-1.62-1.73-4.06.14-6.1,13.52-14.7,13.53-34.8,0-49.61-1.88-2.06-1.95-4.48-.17-6.09s4.23-1.34,6.14.68a43.37,43.37,0,0,1-.11,60.53C223,211.06,220.62,211.27,218.85,209.67Zm16.08,15.06a3.87,3.87,0,0,1-3-2.93c-.44-1.72.32-3,1.48-4.21a57,57,0,0,0,10.21-14.39A55.41,55.41,0,0,0,234,140.53c-.29-.3-.59-.59-.87-.91-1.71-1.93-1.71-4.28,0-5.86a4,4,0,0,1,5.89.4,103.76,103.76,0,0,1,7.71,9.49c7.23,10.6,10.64,22.41,10.75,36-.28,16.33-6.3,31.16-18.29,43.61A4.25,4.25,0,0,1,234.93,224.73Zm42.77-41.18c-.4,3.13-.72,6.28-1.26,9.4a82.25,82.25,0,0,1-23.11,44.58,4.12,4.12,0,0,1-5.92.35,3.91,3.91,0,0,1,.08-5.86A77.26,77.26,0,0,0,262,211.68a74,74,0,0,0,6.95-42.55c-2.13-16.67-9.28-31-21-43.13-2.83-2.94-2.36-5.56,1.28-7.47h1.89a12.54,12.54,0,0,1,2.2,1.46,82.66,82.66,0,0,1,23.47,46.63c.37,2.4.61,4.83.91,7.24Z"/><path class="cls-4" d="M762.85,12.59v0Z"/><path class="cls-4" d="M762.84,12.63v0A0,0,0,0,0,762.84,12.63Z"/><path class="cls-3" d="M566.67,76.11H523.85l-35.36,39-1.17,1.29,11-67.23H464.35L445,171.26h33.76L486,126.31l.64,1.17,23.77,43.78H551l-31.47-48.81Z"/><path class="cls-3" d="M638.68,76.11l-6,37.58c-.12.63-.29,1.54-.48,2.74Q627,149.31,612.36,149.3q-6.3,0-9.59-3.58c-2.19-2.39-3.29-5.83-3.29-10.36q0-1.61.67-6.83t1.81-13l6.29-39.37H574.49l-5.91,36.45q-2,11.88-2.67,17.57a83.12,83.12,0,0,0-.67,9.47q0,16.29,12.26,25.82T611,174.93a70,70,0,0,0,22.08-3.25A44,44,0,0,0,649.64,162q10.68-10.26,15.74-40.89l.29-2,6.86-43Z"/><path class="cls-3" d="M761.14,76.11l-26.32,46.53a55.85,55.85,0,0,0-3.15,6q-1.92,4-4.48,10.07-.3-4.33-1-8.34a60.72,60.72,0,0,0-1.62-7.21L711.16,76.11h-35l33,95.15h29.56l59.52-95.15Z"/><path class="cls-3" d="M882.64,76.11l-2.2,13.75a42.19,42.19,0,0,0-14.3-12.67,38.48,38.48,0,0,0-17.93-4.1q-21.56,0-36,16.3t-14.39,41q0,19.69,10.62,32t27.23,12.33a42,42,0,0,0,18.36-4.08,48.46,48.46,0,0,0,15.51-12.11L868,171.26h31.67l15.25-95.15Zm-13.21,63.44a21.36,21.36,0,0,1-16.84,7.78q-9.24,0-14.87-5.56t-5.63-14.7q0-11.59,6.73-19.22a21.68,21.68,0,0,1,17-7.63q9.06,0,14.69,5.5t5.62,14.38Q876.15,131.79,869.43,139.55Z"/><path class="cls-3" d="M994.13,76.11,974.2,116.8q-2.38,4.9-4.06,9.09t-2.71,7.87a81.15,81.15,0,0,0-2-14.13c-.26-1.07-.45-1.89-.58-2.45l-8.4-41.07H921.26l27.37,90.34-28.32,46.82h35.57l74.78-137.16Z"/><path class="cls-2" d="M1075.32,48.92a18.58,18.58,0,0,0-13.44-5.19,17.87,17.87,0,0,0-13.1,5.39A17.54,17.54,0,0,0,1043.37,62a18.52,18.52,0,0,0,18.51,18.58,18.29,18.29,0,0,0,13.35-5.39A17.85,17.85,0,0,0,1080.68,62,17.49,17.49,0,0,0,1075.32,48.92Z"/><path class="cls-3" d="M1075.65,91.05l.1,0-12.85,80.17h-34.15l2.39-14.95-.1,0,12.58-78.47c.36.43.76.85,1.16,1.25a23.15,23.15,0,0,0,17.06,7.09,23.77,23.77,0,0,0,15.44-5.29Z"/><path class="cls-5" d="M503.49,211.77q-4.58-4.72-12.29-4.72a20.23,20.23,0,0,0-15.2,6.18q-6,6.17-6,15.8,0,8.22,5.2,13.24t13.62,5a19.42,19.42,0,0,0,8.91-2,21.75,21.75,0,0,0,7.2-6.28l-6.2-4.78a13.68,13.68,0,0,1-4.61,4.05,11.93,11.93,0,0,1-5.69,1.44,8.68,8.68,0,0,1-6.92-3,12,12,0,0,1-2.6-8.11h28.89c.08-1,.14-1.81.18-2.51s.06-1.27.06-1.71Q508.06,216.49,503.49,211.77Zm-23.8,10.8a9.67,9.67,0,0,1,3.8-6,12,12,0,0,1,7.31-2.21,7.85,7.85,0,0,1,8.43,8.18Z"/><path class="cls-5" d="M536.07,214.48a15,15,0,0,1,5.73,1.15,19.86,19.86,0,0,1,5.37,3.38l1.8-8.09a22.32,22.32,0,0,0-6.05-2.92,23.37,23.37,0,0,0-6.77-.95q-9.75,0-15.92,6.14T514.06,229q0,8.29,5.13,13.28t13.68,5a24.44,24.44,0,0,0,5.52-.61,21.84,21.84,0,0,0,5-1.84l1.8-9a26.39,26.39,0,0,1-6.12,3,19,19,0,0,1-5.91,1,9.72,9.72,0,0,1-7.43-2.88Q523,234,523,229a15,15,0,0,1,3.65-10.46A12.19,12.19,0,0,1,536.07,214.48Z"/><path class="cls-5" d="M588.67,210.09q-3.25-3-9.09-3a18.89,18.89,0,0,0-7.19,1.37,22.85,22.85,0,0,0-6.63,4.2l3.75-28h-8.59l-8.19,61.17h8.59l2.39-18.43c.62-4.69,1.93-8.16,4-10.43a10.73,10.73,0,0,1,8.39-3.39,6.86,6.86,0,0,1,5.24,1.92,7.9,7.9,0,0,1,1.79,5.59c0,.83,0,1.47,0,1.91s-.06.85-.11,1.24l-2.88,21.59h8.59L591.28,226c0-.19.06-.44.08-.75a64.19,64.19,0,0,0,.57-6.67C591.93,214.93,590.84,212.12,588.67,210.09Z"/><path class="cls-5" d="M635.81,210.07c-2.17-2-5.19-3-9.09-3a19.67,19.67,0,0,0-7.44,1.42,23.13,23.13,0,0,0-6.78,4.39l.64-4.5h-8.27l-5,37.41h8.6l2.39-18.35q.92-7.06,4-10.48a10.63,10.63,0,0,1,8.39-3.42,6.77,6.77,0,0,1,5.23,2,8,8,0,0,1,1.8,5.62c0,.84,0,1.48,0,1.92s-.07.84-.12,1.24l-2.88,21.51h8.59L638.43,226q.32-2.46.48-4.29c.1-1.22.16-2.29.16-3.21C639.07,214.91,638,212.08,635.81,210.07Z"/><path class="cls-5" d="M682.34,212.08q-5.26-5.1-14.1-5.11-9.63,0-15.7,6.14T646.46,229q0,8.34,5.2,13.35t13.85,5q9.72,0,15.91-6.08a20.82,20.82,0,0,0,6.19-15.51Q687.61,217.19,682.34,212.08ZM675,235.9a12.33,12.33,0,0,1-9.53,3.87,9.74,9.74,0,0,1-7.43-2.88q-2.72-2.88-2.71-7.94A15,15,0,0,1,659,218.54a11.89,11.89,0,0,1,9.33-4.06c3.27,0,5.81,1,7.61,2.87s2.69,4.63,2.69,8.13Q678.62,232,675,235.9Z"/><path class="cls-5" d="M702.23,184.6l-8.11,61.17h8.6l8.11-61.17Z"/><path class="cls-5" d="M750.06,212.08Q744.78,207,736,207q-9.62,0-15.7,6.14T714.18,229q0,8.34,5.2,13.35t13.86,5q9.71,0,15.9-6.08a20.79,20.79,0,0,0,6.2-15.51Q755.34,217.19,750.06,212.08Zm-7.29,23.82a12.36,12.36,0,0,1-9.53,3.87,9.72,9.72,0,0,1-7.43-2.88Q723.1,234,723.09,229a15.12,15.12,0,0,1,3.61-10.41,11.94,11.94,0,0,1,9.33-4.06c3.28,0,5.82,1,7.62,2.87s2.7,4.63,2.7,8.13Q746.35,232,742.77,235.9Z"/><path class="cls-5" d="M793.45,208.36l-.72,4.85a20.42,20.42,0,0,0-6.25-4.64,16.63,16.63,0,0,0-7-1.52,16,16,0,0,0-12.94,6q-5,6-5,15.67,0,8.21,4.12,12.79t11.43,4.58a15.82,15.82,0,0,0,6.39-1.27,16.8,16.8,0,0,0,5.4-3.83q-.55,8.69-3.07,11.86T777.51,256q-4.8,0-7.27-1.86a8,8,0,0,1-3-5.8l-7.87,1a14.56,14.56,0,0,0,5.6,10.28q4.79,3.69,12.5,3.69c5.75,0,10.22-1.48,13.38-4.44s5.17-7.5,6-13.63l5-36.94Zm-5.35,26.5a9.88,9.88,0,0,1-8.15,3.88,8.75,8.75,0,0,1-7-2.94c-1.69-2-2.54-4.67-2.54-8.14,0-4.3,1-7.72,2.94-10.28a10.09,10.09,0,0,1,15.08-.9,11.25,11.25,0,0,1,2.73,7.94Q791.18,231,788.1,234.86Z"/><path class="cls-5" d="M813.83,208.36l-5,37.41h8.59l5-37.41Zm9.44-16.68a4.92,4.92,0,0,0-3.61-1.44A5.06,5.06,0,0,0,816,191.7a4.74,4.74,0,0,0-1.49,3.55,4.92,4.92,0,0,0,1.45,3.63,5,5,0,0,0,3.7,1.46,5,5,0,0,0,5.07-5.09A4.79,4.79,0,0,0,823.27,191.68Z"/><path class="cls-5" d="M862.51,211.77q-4.57-4.72-12.29-4.72a20.24,20.24,0,0,0-15.2,6.18q-6,6.17-6,15.8,0,8.22,5.19,13.24t13.63,5a19.38,19.38,0,0,0,8.9-2,21.66,21.66,0,0,0,7.2-6.28l-6.19-4.78a13.71,13.71,0,0,1-4.62,4.05,11.9,11.9,0,0,1-5.69,1.44,8.65,8.65,0,0,1-6.91-3,12,12,0,0,1-2.6-8.11h28.89c.08-1,.13-1.81.17-2.51s.06-1.27.06-1.71Q867.08,216.49,862.51,211.77Zm-23.8,10.8a9.76,9.76,0,0,1,3.8-6,12,12,0,0,1,7.31-2.21,7.85,7.85,0,0,1,8.43,8.18Z"/><path class="cls-5" d="M891.81,224.34c-.69-.37-1.66-.87-2.92-1.5-3.4-1.66-5.11-3.39-5.11-5.21a3.66,3.66,0,0,1,1.44-2.88,5.23,5.23,0,0,1,3.48-1.23,10.26,10.26,0,0,1,4.79,1.19,13.23,13.23,0,0,1,4.12,3.43l5.32-5.45a20.37,20.37,0,0,0-6.16-4.3,17.94,17.94,0,0,0-7.16-1.42,15.55,15.55,0,0,0-10.3,3.3,10.67,10.67,0,0,0-4,8.58,9,9,0,0,0,1.82,5.66q1.83,2.36,7.61,5.59l.32.16c4.06,2.21,6.07,4.25,6.07,6.12a3.75,3.75,0,0,1-1.63,3.17,7.15,7.15,0,0,1-4.36,1.21,10.22,10.22,0,0,1-5.31-1.54,15.85,15.85,0,0,1-4.67-4.47l-5,5.69a19.53,19.53,0,0,0,6.65,5.11,19.15,19.15,0,0,0,8.17,1.76q6.68,0,10.63-3.34a11.08,11.08,0,0,0,4-8.94,10,10,0,0,0-1.68-5.9A17.74,17.74,0,0,0,891.81,224.34Z"/><path class="cls-5" d="M457.31,236.6l0-.1a.31.31,0,0,1,0-.1l2.78-20.78H467l1-7.26h-6.87l1.8-14.17h-8.6l-1.87,14.17H446l-1,7.26h6.55l-2.87,21.62L448,242c0,.11,0,.21,0,.32s0,.21,0,.32a3.15,3.15,0,0,0,3,3.15h11l.41-3.29.49-3.66h-3.59a2,2,0,0,1-2-2,.86.86,0,0,1,0-.16Z"/></svg>